<?xml version="1.0" encoding="UTF-8"?>
<svg width="300" height="400" viewBox="0 0 300 400" fill="none" xmlns="http://www.w3.org/2000/svg">
  <!-- Background -->
  <rect width="300" height="400" fill="white"/>
  
  <!-- Header bar -->
  <rect x="0" y="0" width="300" height="20" fill="#1A365D"/>
  
  <!-- Name -->
  <rect x="50" y="40" width="200" height="10" rx="2" fill="#1A365D"/>
  
  <!-- Contact info -->
  <rect x="70" y="60" width="160" height="5" rx="2" fill="#718096"/>
  <rect x="90" y="70" width="120" height="5" rx="2" fill="#718096"/>
  
  <!-- Divider -->
  <rect x="30" y="90" width="240" height="2" fill="#1A365D"/>
  
  <!-- Summary section -->
  <rect x="30" y="105" width="240" height="30" rx="2" fill="#E2E8F0"/>
  
  <!-- Experience section -->
  <rect x="30" y="150" width="80" height="8" rx="2" fill="#1A365D"/>
  <rect x="30" y="165" width="240" height="1" fill="#1A365D"/>
  
  <rect x="30" y="175" width="60" height="6" rx="2" fill="#2D3748"/>
  <rect x="30" y="185" width="100" height="4" rx="2" fill="#718096"/>
  <rect x="30" y="195" width="240" height="20" rx="2" fill="#E2E8F0"/>
  
  <rect x="30" y="225" width="60" height="6" rx="2" fill="#2D3748"/>
  <rect x="30" y="235" width="100" height="4" rx="2" fill="#718096"/>
  <rect x="30" y="245" width="240" height="20" rx="2" fill="#E2E8F0"/>
  
  <!-- Education section -->
  <rect x="30" y="280" width="80" height="8" rx="2" fill="#1A365D"/>
  <rect x="30" y="295" width="240" height="1" fill="#1A365D"/>
  
  <rect x="30" y="305" width="120" height="6" rx="2" fill="#2D3748"/>
  <rect x="30" y="315" width="80" height="4" rx="2" fill="#718096"/>
  
  <!-- Skills section -->
  <rect x="30" y="335" width="80" height="8" rx="2" fill="#1A365D"/>
  <rect x="30" y="350" width="240" height="1" fill="#1A365D"/>
  
  <rect x="30" y="360" width="50" height="5" rx="2" fill="#2D3748"/>
  <rect x="90" y="360" width="180" height="5" rx="2" fill="#E2E8F0"/>
  <rect x="90" y="360" width="120" height="5" rx="2" fill="#1A365D"/>
  
  <rect x="30" y="375" width="50" height="5" rx="2" fill="#2D3748"/>
  <rect x="90" y="375" width="180" height="5" rx="2" fill="#E2E8F0"/>
  <rect x="90" y="375" width="90" height="5" rx="2" fill="#1A365D"/>
</svg>
