<?xml version="1.0" encoding="UTF-8"?>
<svg width="300" height="400" viewBox="0 0 300 400" fill="none" xmlns="http://www.w3.org/2000/svg">
  <!-- Background -->
  <rect width="300" height="400" fill="white"/>
  
  <!-- Header section with color -->
  <rect x="0" y="0" width="300" height="80" fill="#805AD5"/>
  
  <!-- Name and title -->
  <rect x="75" y="20" width="150" height="12" rx="2" fill="white"/>
  <rect x="100" y="40" width="100" height="6" rx="2" fill="#E9D8FD"/>
  
  <!-- Contact info pills -->
  <rect x="60" y="60" width="50" height="10" rx="5" fill="white"/>
  <rect x="120" y="60" width="60" height="10" rx="5" fill="white"/>
  <rect x="190" y="60" width="50" height="10" rx="5" fill="white"/>
  
  <!-- About section -->
  <rect x="30" y="100" width="80" height="10" rx="5" fill="#805AD5"/>
  <rect x="30" y="120" width="240" height="40" rx="5" fill="#F7FAFC"/>
  
  <!-- Two column layout -->
  <!-- Left column -->
  <rect x="30" y="180" width="110" height="200" fill="white"/>
  
  <!-- Experience section -->
  <rect x="30" y="180" width="80" height="10" rx="5" fill="#805AD5"/>
  
  <rect x="30" y="200" width="110" height="50" rx="5" fill="#F7FAFC"/>
  <rect x="40" y="210" width="60" height="6" rx="2" fill="#4A5568"/>
  <rect x="40" y="220" width="90" height="4" rx="2" fill="#718096"/>
  <rect x="40" y="230" width="90" height="10" rx="2" fill="#F7FAFC"/>
  
  <rect x="30" y="260" width="110" height="50" rx="5" fill="#F7FAFC"/>
  <rect x="40" y="270" width="60" height="6" rx="2" fill="#4A5568"/>
  <rect x="40" y="280" width="90" height="4" rx="2" fill="#718096"/>
  <rect x="40" y="290" width="90" height="10" rx="2" fill="#F7FAFC"/>
  
  <!-- Right column -->
  <rect x="160" y="180" width="110" height="200" fill="white"/>
  
  <!-- Skills section -->
  <rect x="160" y="180" width="80" height="10" rx="5" fill="#805AD5"/>
  
  <rect x="160" y="200" width="50" height="15" rx="7.5" fill="#EBF4FF"/>
  <rect x="220" y="200" width="50" height="15" rx="7.5" fill="#EBF4FF"/>
  <rect x="160" y="225" width="60" height="15" rx="7.5" fill="#EBF4FF"/>
  <rect x="230" y="225" width="40" height="15" rx="7.5" fill="#EBF4FF"/>
  <rect x="160" y="250" width="45" height="15" rx="7.5" fill="#EBF4FF"/>
  <rect x="215" y="250" width="55" height="15" rx="7.5" fill="#EBF4FF"/>
  
  <!-- Projects section -->
  <rect x="160" y="280" width="80" height="10" rx="5" fill="#805AD5"/>
  
  <rect x="160" y="300" width="110" height="40" rx="5" fill="#F7FAFC"/>
  <rect x="170" y="310" width="70" height="6" rx="2" fill="#4A5568"/>
  <rect x="170" y="320" width="90" height="10" rx="2" fill="#F7FAFC"/>
  
  <!-- Education section -->
  <rect x="30" y="330" width="80" height="10" rx="5" fill="#805AD5"/>
  
  <rect x="30" y="350" width="110" height="30" rx="5" fill="#F7FAFC"/>
  <rect x="40" y="360" width="90" height="6" rx="2" fill="#4A5568"/>
  <rect x="40" y="370" width="60" height="4" rx="2" fill="#718096"/>
</svg>
